<?xml version="1.0" encoding="UTF-8" standalone="no"?>
<!-- Created with Inkscape (http://www.inkscape.org/) -->

<svg
   xmlns:dc="http://purl.org/dc/elements/1.1/"
   xmlns:cc="http://creativecommons.org/ns#"
   xmlns:rdf="http://www.w3.org/1999/02/22-rdf-syntax-ns#"
   xmlns:svg="http://www.w3.org/2000/svg"
   xmlns="http://www.w3.org/2000/svg"
   xmlns:sodipodi="http://sodipodi.sourceforge.net/DTD/sodipodi-0.dtd"
   xmlns:inkscape="http://www.inkscape.org/namespaces/inkscape"
   width="16000"
   height="1250"
   id="svg2"
   version="1.1"
   inkscape:version="0.48.4 r"
   sodipodi:docname="Hues.svg"
   inkscape:export-filename="C:\Users\Diego\Documents\Visual Studio 2013\Projects\Hues\Hues\Hues.Shared\Hues.png"
   inkscape:export-xdpi="90"
   inkscape:export-ydpi="90">
  <defs
     id="defs4" />
  <sodipodi:namedview
     id="base"
     pagecolor="#ffffff"
     bordercolor="#666666"
     borderopacity="1.0"
     inkscape:pageopacity="0.0"
     inkscape:pageshadow="2"
     inkscape:zoom="0.26582796"
     inkscape:cx="2609.2524"
     inkscape:cy="911.66391"
     inkscape:document-units="px"
     inkscape:current-layer="layer1"
     showgrid="true"
     units="px"
     showguides="false"
     inkscape:guide-bbox="true"
     inkscape:window-width="1366"
     inkscape:window-height="705"
     inkscape:window-x="-8"
     inkscape:window-y="-8"
     inkscape:window-maximized="1"
     inkscape:snap-global="false">
    <inkscape:grid
       type="xygrid"
       id="grid2985"
       units="px"
       empspacing="20"
       visible="true"
       enabled="true"
       snapvisiblegridlinesonly="true"
       spacingx="5px"
       spacingy="5px"
       dotted="false" />
    <sodipodi:guide
       orientation="1,0"
       position="0,0"
       id="guide2987" />
    <sodipodi:guide
       orientation="1,0"
       position="100,0"
       id="guide2989" />
    <sodipodi:guide
       orientation="0,1"
       position="0,125"
       id="guide2991" />
    <sodipodi:guide
       orientation="1,0"
       position="300,0"
       id="guide2993" />
    <sodipodi:guide
       orientation="1,0"
       position="200,0"
       id="guide2995" />
    <sodipodi:guide
       orientation="0,1"
       position="0,250"
       id="guide2997" />
    <sodipodi:guide
       orientation="0,1"
       position="0,0"
       id="guide2999" />
    <sodipodi:guide
       orientation="1,0"
       position="400,0"
       id="guide3001" />
    <sodipodi:guide
       orientation="1,0"
       position="500,0"
       id="guide3003" />
    <sodipodi:guide
       orientation="1,0"
       position="600,0"
       id="guide3005" />
    <sodipodi:guide
       orientation="1,0"
       position="700,0"
       id="guide3007" />
    <sodipodi:guide
       orientation="1,0"
       position="800,0"
       id="guide3009" />
    <sodipodi:guide
       orientation="1,0"
       position="900,0"
       id="guide3011" />
    <sodipodi:guide
       orientation="1,0"
       position="1000,0"
       id="guide3013" />
    <sodipodi:guide
       orientation="1,0"
       position="1100,0"
       id="guide3015" />
    <sodipodi:guide
       orientation="1,0"
       position="1200,0"
       id="guide3017" />
    <sodipodi:guide
       orientation="1,0"
       position="1300,0"
       id="guide3019" />
    <sodipodi:guide
       orientation="1,0"
       position="1400,0"
       id="guide3021" />
    <sodipodi:guide
       orientation="1,0"
       position="1500,0"
       id="guide3023" />
    <sodipodi:guide
       orientation="0,1"
       position="0,62.5"
       id="guide3335" />
  </sodipodi:namedview>
  <metadata
     id="metadata7">
    <rdf:RDF>
      <cc:Work
         rdf:about="">
        <dc:format>image/svg+xml</dc:format>
        <dc:type
           rdf:resource="http://purl.org/dc/dcmitype/StillImage" />
        <dc:title />
      </cc:Work>
    </rdf:RDF>
  </metadata>
  <g
     inkscape:label="Camada 1"
     inkscape:groupmode="layer"
     id="layer1"
     transform="translate(0,197.6378)">
    <rect
       style="fill:#e3dedb"
       id="rect3025"
       width="16000"
       height="1250"
       x="-8.8817842e-016"
       y="-197.63782" />
    <rect
       style="fill:#e97e2e;fill-opacity:1"
       id="rect3033"
       width="900"
       height="1150"
       x="2050"
       y="-147.6378"
       ry="99.999969"
       rx="100" />
    <rect
       rx="100"
       ry="99.999969"
       y="-147.6378"
       x="3050"
       height="1150"
       width="900"
       id="rect3035"
       style="fill:#d84444;fill-opacity:1" />
    <rect
       style="fill:#3fa2d9;fill-opacity:1"
       id="rect3037"
       width="900"
       height="1150"
       x="4050"
       y="-147.6378"
       ry="99.999969"
       rx="100" />
    <rect
       rx="100"
       ry="99.999969"
       y="-147.6378"
       x="5050"
       height="1150"
       width="900"
       id="rect3039"
       style="fill:#0ea14c;fill-opacity:1" />
    <rect
       style="fill:#2e7a7a;fill-opacity:1"
       id="rect3041"
       width="900"
       height="1150"
       x="6050"
       y="-147.6378"
       ry="99.999969"
       rx="100" />
    <rect
       rx="100"
       ry="99.999969"
       y="-147.6378"
       x="7050"
       height="1150"
       width="900"
       id="rect3043"
       style="fill:#3fc31d;fill-opacity:1" />
    <rect
       style="fill:#3a549e;fill-opacity:1"
       id="rect3045"
       width="900"
       height="1150"
       x="8050"
       y="-147.6378"
       ry="99.999969"
       rx="100" />
    <rect
       rx="100"
       ry="99.999969"
       y="-147.6378"
       x="9050"
       height="1150"
       width="900"
       id="rect3047"
       style="fill:#764f9f;fill-opacity:1" />
    <rect
       style="fill:#ff34e0;fill-opacity:1"
       id="rect3049"
       width="900"
       height="1150"
       x="10050"
       y="-147.6378"
       ry="99.999969"
       rx="100" />
    <rect
       rx="100"
       ry="99.999969"
       y="-147.6378"
       x="11050"
       height="1150"
       width="900"
       id="rect3051"
       style="fill:#b31f8f;fill-opacity:1" />
    <rect
       style="fill:#322246;fill-opacity:1"
       id="rect3053"
       width="900"
       height="1150"
       x="12050"
       y="-147.6378"
       ry="99.999969"
       rx="100" />
    <rect
       rx="100"
       ry="99.999969"
       y="-147.6378"
       x="13050"
       height="1150"
       width="900"
       id="rect3055"
       style="fill:#b28d49;fill-opacity:1" />
    <rect
       style="fill:#7c2e18;fill-opacity:1"
       id="rect3057"
       width="900"
       height="1150"
       x="14050"
       y="-147.6378"
       ry="99.999969"
       rx="100" />
    <rect
       style="fill:#282828;fill-opacity:1"
       id="rect3059"
       width="900"
       height="1150"
       x="15050"
       y="-147.6378"
       ry="99.999969"
       rx="100" />
    <flowRoot
       xml:space="preserve"
       id="flowRoot3902"
       style="font-size:40px;font-style:normal;font-weight:normal;line-height:125%;letter-spacing:0px;word-spacing:0px;fill:#000000;fill-opacity:1;stroke:none;font-family:Sans"><flowRegion
         id="flowRegion3904"><rect
           id="rect3906"
           width="38.653366"
           height="47.381546"
           x="44.887779"
           y="170.19951" /></flowRegion><flowPara
         id="flowPara3908" /></flowRoot>    <flowRoot
       xml:space="preserve"
       id="flowRoot3910"
       style="font-size:40px;font-style:normal;font-weight:normal;line-height:125%;letter-spacing:0px;word-spacing:0px;fill:#000000;fill-opacity:1;stroke:none;font-family:Sans"
       transform="translate(0,802.36218)"><flowRegion
         id="flowRegion3912"><rect
           id="rect3914"
           width="45.847324"
           height="50.255718"
           x="45.847324"
           y="174.17558" /></flowRegion><flowPara
         id="flowPara3916">+2</flowPara></flowRoot>    <rect
       rx="100"
       ry="99.999969"
       y="-147.6378"
       x="50"
       height="1150"
       width="900"
       id="rect3337"
       style="fill:#cccccc;fill-opacity:1" />
    <rect
       rx="100"
       ry="99.999969"
       y="-147.6378"
       x="1050"
       height="1150"
       width="900"
       id="rect4296"
       style="fill:#ffc426;fill-opacity:1" />
    <path
       style="fill:#000000;fill-opacity:0.74509804"
       clip-path="none"
       d="m 1050,852.36218 0,50 c 0,55.4 44.6,100.00002 100,100.00002 l 700,0 c 55.4,0 100,-44.60002 100,-100.00002 l 0,-50 c 0,55.4 -44.6,100 -100,100 l -700,0 c -55.4,0 -100,-44.6 -100,-100 z"
       id="rect4282"
       inkscape:connector-curvature="0" />
    <path
       inkscape:connector-curvature="0"
       id="path4316"
       d="m 2050,852.36218 0,50 c 0,55.4 44.6,100.00002 100,100.00002 l 700,0 c 55.4,0 100,-44.60002 100,-100.00002 l 0,-50 c 0,55.4 -44.6,100 -100,100 l -700,0 c -55.4,0 -100,-44.6 -100,-100 z"
       clip-path="none"
       style="fill:#000000;fill-opacity:0.74509804" />
    <path
       style="fill:#000000;fill-opacity:0.74509804"
       clip-path="none"
       d="m 3050,852.36218 0,50 c 0,55.4 44.6,100.00002 100,100.00002 l 700,0 c 55.4,0 100,-44.60002 100,-100.00002 l 0,-50 c 0,55.4 -44.6,100 -100,100 l -700,0 c -55.4,0 -100,-44.6 -100,-100 z"
       id="path4318"
       inkscape:connector-curvature="0" />
    <path
       inkscape:connector-curvature="0"
       id="path4320"
       d="m 4050,852.36218 0,50 c 0,55.4 44.6,100.00002 100,100.00002 l 700,0 c 55.4,0 100,-44.60002 100,-100.00002 l 0,-50 c 0,55.4 -44.6,100 -100,100 l -700,0 c -55.4,0 -100,-44.6 -100,-100 z"
       clip-path="none"
       style="fill:#000000;fill-opacity:0.74509804" />
    <path
       inkscape:connector-curvature="0"
       id="path4322"
       d="m 5050,852.36218 0,50 c 0,55.4 44.6,100.00002 100,100.00002 l 700,0 c 55.4,0 100,-44.60002 100,-100.00002 l 0,-50 c 0,55.4 -44.6,100 -100,100 l -700,0 c -55.4,0 -100,-44.6 -100,-100 z"
       clip-path="none"
       style="fill:#000000;fill-opacity:0.74509804" />
    <path
       style="fill:#000000;fill-opacity:0.74509804"
       clip-path="none"
       d="m 6050,852.36218 0,50 c 0,55.4 44.6,100.00002 100,100.00002 l 700,0 c 55.4,0 100,-44.60002 100,-100.00002 l 0,-50 c 0,55.4 -44.6,100 -100,100 l -700,0 c -55.4,0 -100,-44.6 -100,-100 z"
       id="path4324"
       inkscape:connector-curvature="0" />
    <path
       inkscape:connector-curvature="0"
       id="path4326"
       d="m 7050,852.36218 0,50 c 0,55.4 44.6,100.00002 100,100.00002 l 700,0 c 55.4,0 100,-44.60002 100,-100.00002 l 0,-50 c 0,55.4 -44.6,100 -100,100 l -700,0 c -55.4,0 -100,-44.6 -100,-100 z"
       clip-path="none"
       style="fill:#000000;fill-opacity:0.74509804" />
    <path
       style="fill:#000000;fill-opacity:0.74509804"
       clip-path="none"
       d="m 8050,852.36218 0,50 c 0,55.4 44.6,100.00002 100,100.00002 l 700,0 c 55.4,0 100,-44.60002 100,-100.00002 l 0,-50 c 0,55.4 -44.6,100 -100,100 l -700,0 c -55.4,0 -100,-44.6 -100,-100 z"
       id="path4328"
       inkscape:connector-curvature="0" />
    <path
       style="fill:#000000;fill-opacity:0.74509804"
       clip-path="none"
       d="m 9050,852.36218 0,50 c 0,55.4 44.6,100.00002 100,100.00002 l 700,0 c 55.4,0 100,-44.60002 100,-100.00002 l 0,-50 c 0,55.4 -44.6,100 -100,100 l -700,0 c -55.4,0 -100,-44.6 -100,-100 z"
       id="path4330"
       inkscape:connector-curvature="0" />
    <path
       inkscape:connector-curvature="0"
       id="path4332"
       d="m 10050,852.36218 0,50 c 0,55.4 44.6,100.00002 100,100.00002 l 700,0 c 55.4,0 100,-44.60002 100,-100.00002 l 0,-50 c 0,55.4 -44.6,100 -100,100 l -700,0 c -55.4,0 -100,-44.6 -100,-100 z"
       clip-path="none"
       style="fill:#000000;fill-opacity:0.74509804" />
    <path
       style="fill:#000000;fill-opacity:0.74509804"
       clip-path="none"
       d="m 11050,852.36218 0,50 c 0,55.4 44.6,100.00002 100,100.00002 l 700,0 c 55.4,0 100,-44.60002 100,-100.00002 l 0,-50 c 0,55.4 -44.6,100 -100,100 l -700,0 c -55.4,0 -100,-44.6 -100,-100 z"
       id="path4334"
       inkscape:connector-curvature="0" />
    <path
       inkscape:connector-curvature="0"
       id="path4336"
       d="m 12050,852.36218 0,50 c 0,55.4 44.6,100.00002 100,100.00002 l 700,0 c 55.4,0 100,-44.60002 100,-100.00002 l 0,-50 c 0,55.4 -44.6,100 -100,100 l -700,0 c -55.4,0 -100,-44.6 -100,-100 z"
       clip-path="none"
       style="fill:#000000;fill-opacity:0.74509804" />
    <path
       inkscape:connector-curvature="0"
       id="path4338"
       d="m 13050,852.36218 0,50 c 0,55.4 44.6,100.00002 100,100.00002 l 700,0 c 55.4,0 100,-44.60002 100,-100.00002 l 0,-50 c 0,55.4 -44.6,100 -100,100 l -700,0 c -55.4,0 -100,-44.6 -100,-100 z"
       clip-path="none"
       style="fill:#000000;fill-opacity:0.74509804" />
    <path
       style="fill:#000000;fill-opacity:0.74509804"
       clip-path="none"
       d="m 14050,852.36218 0,50 c 0,55.4 44.6,100.00002 100,100.00002 l 700,0 c 55.4,0 100,-44.60002 100,-100.00002 l 0,-50 c 0,55.4 -44.6,100 -100,100 l -700,0 c -55.4,0 -100,-44.6 -100,-100 z"
       id="path4340"
       inkscape:connector-curvature="0" />
    <path
       inkscape:connector-curvature="0"
       id="path4342"
       d="m 15050,852.36218 0,50 c 0,55.4 44.6,100.00002 100,100.00002 l 700,0 c 55.4,0 100,-44.60002 100,-100.00002 l 0,-50 c 0,55.4 -44.6,100 -100,100 l -700,0 c -55.4,0 -100,-44.6 -100,-100 z"
       clip-path="none"
       style="fill:#000000;fill-opacity:0.74509804" />
  </g>
</svg>
